<?xml version="1.0" encoding="UTF-8" standalone="no"?>
<!-- Generator: Adobe Illustrator 15.0.0, SVG Export Plug-In  -->

<svg
   xmlns:dc="http://purl.org/dc/elements/1.1/"
   xmlns:cc="http://creativecommons.org/ns#"
   xmlns:rdf="http://www.w3.org/1999/02/22-rdf-syntax-ns#"
   xmlns:svg="http://www.w3.org/2000/svg"
   xmlns="http://www.w3.org/2000/svg"
   xmlns:sodipodi="http://sodipodi.sourceforge.net/DTD/sodipodi-0.dtd"
   xmlns:inkscape="http://www.inkscape.org/namespaces/inkscape"
   version="1.1"
   x="0px"
   y="0px"
   width="143.09834"
   height="40.245998"
   viewBox="0 -2.5 143.09834 40.245998"
   overflow="visible"
   enable-background="new 0 -2.5 302 302"
   xml:space="preserve"
   id="svg3614"
   inkscape:version="0.48.4 r9939"
   sodipodi:docname="FurtherReachLogo20140819.svg"
   style="overflow:visible"><metadata
     id="metadata4203"><rdf:RDF><cc:Work
         rdf:about=""><dc:format>image/svg+xml</dc:format><dc:type
           rdf:resource="http://purl.org/dc/dcmitype/StillImage" /><dc:title></dc:title></cc:Work></rdf:RDF></metadata><sodipodi:namedview
     pagecolor="#ffffff"
     bordercolor="#666666"
     borderopacity="1"
     objecttolerance="10"
     gridtolerance="10"
     guidetolerance="10"
     inkscape:pageopacity="0"
     inkscape:pageshadow="2"
     inkscape:window-width="1301"
     inkscape:window-height="744"
     id="namedview4201"
     showgrid="false"
     fit-margin-top="0"
     fit-margin-left="0"
     fit-margin-right="0"
     fit-margin-bottom="0"
     inkscape:zoom="2.0430464"
     inkscape:cx="72.238349"
     inkscape:cy="4.031"
     inkscape:window-x="65"
     inkscape:window-y="24"
     inkscape:window-maximized="1"
     inkscape:current-layer="svg3614" /><defs
     id="defs3616" /><g
     display="none"
     id="g3618"
     style="display:none"
     transform="translate(-78.761651,-114.785)"><g
       display="inline"
       id="g3620"
       style="display:inline"><g
         display="none"
         id="g3622"
         style="display:none"><path
           d="m 66.918,151.073 h 12.159 v 3.691 h -7.67 v 5.188 h 6.748 v 3.501 h -6.748 v 8.816 h -4.489 v -21.196 z"
           id="path3624"
           inkscape:connector-curvature="0"
           style="fill:#495066" /><path
           d="m 84.829,167.625 v -10.854 h 4.233 v 9.993 c 0,1.56 0.542,2.355 2.069,2.355 1.624,0 2.865,-1.56 3.184,-1.942 v -10.406 h 4.233 v 11.044 c 0,1.973 0.223,3.532 0.413,4.455 h -4.169 c -0.128,-0.413 -0.287,-1.432 -0.318,-2.069 -0.828,1.051 -2.418,2.452 -4.997,2.452 -3.407,0 -4.648,-2.195 -4.648,-5.028 z"
           id="path3626"
           inkscape:connector-curvature="0"
           style="fill:#495066" /><path
           d="m 105.863,156.771 h 4.233 v 2.1 c 0.668,-1.146 1.941,-2.482 3.916,-2.482 1.146,0 1.75,0.223 2.1,0.413 l -1.019,3.692 c -0.255,-0.158 -0.732,-0.351 -1.623,-0.351 -1.878,0 -2.993,1.656 -3.375,2.356 v 9.771 h -4.233 v -15.499 z"
           id="path3628"
           inkscape:connector-curvature="0"
           style="fill:#495066" /><path
           d="m 122.184,167.815 v -7.895 h -2.482 v -3.149 h 2.482 v -4.489 h 4.203 v 4.489 h 3.629 v 3.149 h -3.629 v 7.066 c 0,1.527 0.381,2.195 1.56,2.195 0.922,0 1.719,-0.381 2.037,-0.571 l 0.987,3.15 c -0.638,0.351 -1.943,0.892 -3.884,0.892 -3.662,0.001 -4.903,-1.878 -4.903,-4.837 z"
           id="path3630"
           inkscape:connector-curvature="0"
           style="fill:#495066" /><path
           d="m 136.599,149.353 h 4.233 v 9.296 c 0.796,-0.858 2.292,-2.26 4.838,-2.26 3.406,0 4.647,2.163 4.647,5.028 v 10.854 h -4.234 v -9.993 c 0,-1.561 -0.54,-2.356 -2.037,-2.356 -1.654,0 -2.896,1.528 -3.214,1.943 v 10.406 h -4.233 v -22.918 z"
           id="path3632"
           inkscape:connector-curvature="0"
           style="fill:#495066" /><path
           d="m 156.424,164.44 c 0,-4.901 3.374,-8.052 7.671,-8.052 4.393,0 6.747,2.801 6.747,7.639 0,0.478 -0.032,0.955 -0.062,1.464 h -9.805 c 0.191,2.292 1.369,4.012 3.948,4.012 2.1,0 3.278,-0.701 4.042,-1.082 l 1.368,2.736 c -1.019,0.572 -2.609,1.496 -5.793,1.496 -5.187,0 -8.116,-3.278 -8.116,-8.213 z m 10.281,-1.814 c -0.032,-1.75 -0.731,-3.182 -2.675,-3.182 -1.814,0 -2.801,1.177 -3.119,3.182 h 5.794 z"
           id="path3634"
           inkscape:connector-curvature="0"
           style="fill:#495066" /><path
           d="m 177.235,156.771 h 4.233 v 2.1 c 0.668,-1.146 1.94,-2.482 3.915,-2.482 1.146,0 1.751,0.223 2.1,0.413 l -1.019,3.692 c -0.254,-0.158 -0.731,-0.351 -1.622,-0.351 -1.879,0 -2.993,1.656 -3.374,2.356 v 9.771 h -4.233 v -15.499 z"
           id="path3636"
           inkscape:connector-curvature="0"
           style="fill:#495066" /><path
           d="m 202.755,151.073 h 7.067 c 4.965,0 7.83,2.133 7.83,6.111 0,3.469 -2.355,5.219 -4.935,5.698 v 0.062 c 0.573,0.414 1.337,1.241 2.484,3.023 l 4.137,6.302 h -4.933 l -3.884,-6.047 c -1.656,-2.451 -2.005,-2.673 -2.992,-2.673 h -0.286 v 8.72 h -4.489 v -21.196 z m 6.939,9.293 c 2.388,0 3.501,-1.081 3.501,-2.928 0,-1.942 -1.113,-2.929 -3.691,-2.929 h -2.26 v 5.856 h 2.45 z"
           id="path3638"
           inkscape:connector-curvature="0"
           style="fill:#495066" /><path
           d="m 223.241,164.44 c 0,-4.901 3.374,-8.052 7.671,-8.052 4.394,0 6.749,2.801 6.749,7.639 0,0.478 -0.032,0.955 -0.064,1.464 h -9.803 c 0.19,2.292 1.368,4.012 3.946,4.012 2.102,0 3.278,-0.701 4.042,-1.082 l 1.37,2.736 c -1.02,0.572 -2.611,1.496 -5.793,1.496 -5.189,0 -8.118,-3.278 -8.118,-8.213 z m 10.281,-1.814 c -0.031,-1.75 -0.731,-3.182 -2.673,-3.182 -1.814,0 -2.803,1.177 -3.119,3.182 h 5.792 z"
           id="path3640"
           inkscape:connector-curvature="0"
           style="fill:#495066" /><path
           d="m 242.807,168.292 c 0,-4.042 4.17,-5.506 8.274,-5.506 h 0.542 v -0.892 c 0,-1.496 -0.668,-2.164 -2.515,-2.164 -1.687,0 -3.023,0.732 -3.946,1.464 l -1.847,-2.578 c 1.241,-1.146 3.343,-2.228 6.271,-2.228 4.234,0 6.239,1.622 6.239,5.729 v 5.57 c 0,2.101 0.223,3.597 0.445,4.583 h -4.17 c -0.126,-0.381 -0.223,-1.177 -0.254,-1.654 -0.827,1.019 -2.354,2.037 -4.359,2.037 -2.643,0 -4.68,-1.591 -4.68,-4.361 z m 8.816,-0.096 v -2.8 h -0.542 c -2.482,0 -4.2,0.73 -4.2,2.547 0,1.145 0.922,1.622 1.877,1.622 1.304,0 2.197,-0.603 2.865,-1.369 z"
           id="path3642"
           inkscape:connector-curvature="0"
           style="fill:#495066" /><path
           d="m 261.271,164.537 c 0,-5.22 3.469,-8.148 8.148,-8.148 2.515,0 4.01,0.764 4.742,1.241 l -1.369,2.896 c -0.7,-0.445 -1.687,-0.923 -3.246,-0.923 -2.482,0 -3.788,1.941 -3.788,4.808 0,2.863 1.241,4.965 3.884,4.965 1.782,0 2.863,-0.669 3.342,-0.954 l 1.305,2.831 c -0.732,0.478 -2.164,1.401 -4.997,1.401 -4.965,-0.001 -8.021,-3.311 -8.021,-8.117 z"
           id="path3644"
           inkscape:connector-curvature="0"
           style="fill:#495066" /><path
           d="m 279.691,149.353 h 4.234 v 9.296 c 0.795,-0.858 2.29,-2.26 4.837,-2.26 3.406,0 4.647,2.163 4.647,5.028 v 10.854 h -4.233 v -9.993 c 0,-1.561 -0.541,-2.356 -2.037,-2.356 -1.655,0 -2.896,1.528 -3.214,1.943 v 10.406 h -4.234 v -22.918 z"
           id="path3646"
           inkscape:connector-curvature="0"
           style="fill:#495066" /></g></g></g><linearGradient
     id="SVGID_1_"
     gradientUnits="userSpaceOnUse"
     x1="31.5483"
     y1="119.2148"
     x2="51.841801"
     y2="119.2148"
     gradientTransform="translate(-78.761651,-114.785)"><stop
       offset="0"
       style="stop-color:#0090BC"
       id="stop3649" /><stop
       offset="0.2215"
       style="stop-color:#008CB9"
       id="stop3651" /><stop
       offset="0.4194"
       style="stop-color:#0082B0"
       id="stop3653" /><stop
       offset="0.6083"
       style="stop-color:#006FA1"
       id="stop3655" /><stop
       offset="0.7905"
       style="stop-color:#00568B"
       id="stop3657" /><stop
       offset="0.9141"
       style="stop-color:#004079"
       id="stop3659" /></linearGradient><path
     display="none"
     d="m -27.712651,4.017 c -2.5,-2.716 -5.844,-4.214 -9.415,-4.214 -3.478,0 -6.765,1.438 -9.257,4.048 -1.144,1.2 -1.097,3.106 0.102,4.25 0.562,0.536 1.296,0.83 2.073,0.83 0.83,0 1.602,-0.331 2.175,-0.931 1.345,-1.409 3.088,-2.186 4.907,-2.186 1.868,0 3.641,0.807 4.991,2.271 0.567,0.617 1.375,0.972 2.211,0.972 0.757,0 1.479,-0.282 2.037,-0.794 1.219,-1.122 1.299,-3.027 0.176,-4.246 z"
     id="path3661"
     inkscape:connector-curvature="0"
     style="fill:url(#SVGID_1_);display:none" /><linearGradient
     id="SVGID_2_"
     gradientUnits="userSpaceOnUse"
     x1="25.811001"
     y1="108.9707"
     x2="57.273399"
     y2="108.9707"
     gradientTransform="translate(-78.761651,-114.785)"><stop
       offset="0"
       style="stop-color:#0090BC"
       id="stop3664" /><stop
       offset="0.2215"
       style="stop-color:#008CB9"
       id="stop3666" /><stop
       offset="0.4194"
       style="stop-color:#0082B0"
       id="stop3668" /><stop
       offset="0.6083"
       style="stop-color:#006FA1"
       id="stop3670" /><stop
       offset="0.7905"
       style="stop-color:#00568B"
       id="stop3672" /><stop
       offset="0.9141"
       style="stop-color:#004079"
       id="stop3674" /></linearGradient><path
     display="none"
     d="m -22.533651,-5.774 c -4.194,-3.606 -9.24,-5.512 -14.593,-5.512 -5.375,0 -10.632,2.019 -14.801,5.681 -0.604,0.53 -0.963,1.263 -1.016,2.065 -0.052,0.8 0.212,1.573 0.742,2.177 0.57,0.649 1.394,1.021 2.258,1.021 0.73,0 1.435,-0.266 1.982,-0.748 3.117,-2.738 6.862,-4.185 10.834,-4.185 3.897,0 7.587,1.403 10.674,4.06 0.544,0.467 1.24,0.725 1.958,0.725 0.877,0 1.709,-0.38 2.28,-1.046 0.524,-0.607 0.78,-1.384 0.719,-2.185 -0.061,-0.8 -0.43,-1.53 -1.037,-2.053 z"
     id="path3676"
     inkscape:connector-curvature="0"
     style="fill:url(#SVGID_2_);display:none" /><linearGradient
     id="SVGID_3_"
     gradientUnits="userSpaceOnUse"
     x1="16.815901"
     y1="100.3838"
     x2="66.251999"
     y2="100.3838"
     gradientTransform="translate(-78.761651,-114.785)"><stop
       offset="0"
       style="stop-color:#0090BC"
       id="stop3679" /><stop
       offset="0.2215"
       style="stop-color:#008CB9"
       id="stop3681" /><stop
       offset="0.4194"
       style="stop-color:#0082B0"
       id="stop3683" /><stop
       offset="0.6083"
       style="stop-color:#006FA1"
       id="stop3685" /><stop
       offset="0.7905"
       style="stop-color:#00568B"
       id="stop3687" /><stop
       offset="0.9141"
       style="stop-color:#004079"
       id="stop3689" /></linearGradient><path
     display="none"
     d="m -13.301651,-11.691 c -6.352,-6.893 -14.813,-10.688 -23.826,-10.688 -9.124,0 -17.662,3.882 -24.042,10.932 -1.113,1.228 -1.017,3.131 0.212,4.246 0.555,0.502 1.269,0.776 2.016,0.776 0.847,0 1.659,-0.359 2.228,-0.988 5.228,-5.774 12.184,-8.955 19.587,-8.955 7.315,0 14.206,3.108 19.405,8.752 0.567,0.613 1.374,0.966 2.21,0.966 0.755,0 1.479,-0.282 2.036,-0.796 1.216,-1.121 1.295,-3.024 0.174,-4.245 z"
     id="path3691"
     inkscape:connector-curvature="0"
     style="fill:url(#SVGID_3_);display:none" /><linearGradient
     id="SVGID_4_"
     gradientUnits="userSpaceOnUse"
     x1="7.2108998"
     y1="97.8936"
     x2="17.665001"
     y2="97.8936"
     gradientTransform="translate(-78.761651,-114.785)"><stop
       offset="0"
       style="stop-color:#0090BC"
       id="stop3694" /><stop
       offset="0.2215"
       style="stop-color:#008CB9"
       id="stop3696" /><stop
       offset="0.4194"
       style="stop-color:#0082B0"
       id="stop3698" /><stop
       offset="0.6083"
       style="stop-color:#006FA1"
       id="stop3700" /><stop
       offset="0.7905"
       style="stop-color:#00568B"
       id="stop3702" /><stop
       offset="0.9141"
       style="stop-color:#004079"
       id="stop3704" /></linearGradient><path
     display="none"
     d="m -61.930651,-21.452 c -0.574,-0.598 -1.345,-0.927 -2.171,-0.927 -0.778,0 -1.516,0.297 -2.078,0.833 -1.704,1.63 -3.303,3.415 -4.751,5.305 -0.487,0.638 -0.7,1.426 -0.594,2.224 0.106,0.794 0.514,1.501 1.151,1.989 0.529,0.406 1.161,0.623 1.826,0.623 0.944,0 1.815,-0.431 2.388,-1.179 1.263,-1.648 2.654,-3.203 4.135,-4.618 0.579,-0.555 0.908,-1.304 0.927,-2.104 0.017,-0.802 -0.279,-1.565 -0.833,-2.146 z"
     id="path3706"
     inkscape:connector-curvature="0"
     style="fill:url(#SVGID_4_);display:none" /><linearGradient
     id="SVGID_5_"
     gradientUnits="userSpaceOnUse"
     x1="65.851097"
     y1="99.602097"
     x2="78.662102"
     y2="99.602097"
     gradientTransform="translate(-78.761651,-114.785)"><stop
       offset="0"
       style="stop-color:#0090BC"
       id="stop3709" /><stop
       offset="0.2215"
       style="stop-color:#008CB9"
       id="stop3711" /><stop
       offset="0.4194"
       style="stop-color:#0082B0"
       id="stop3713" /><stop
       offset="0.6083"
       style="stop-color:#006FA1"
       id="stop3715" /><stop
       offset="0.7905"
       style="stop-color:#00568B"
       id="stop3717" /><stop
       offset="0.9141"
       style="stop-color:#004079"
       id="stop3719" /></linearGradient><path
     display="none"
     d="m -0.55665114,-12.583 c -2.05299996,-3.286 -4.49799996,-6.302 -7.27099996,-8.96 -0.562,-0.538 -1.301,-0.835 -2.081,-0.835 -0.8229999,0 -1.5949999,0.329 -2.1669999,0.924 -1.148,1.196 -1.107,3.104 0.089,4.25 2.4179999,2.321 4.5489999,4.947 6.3309999,7.802 0.551,0.886 1.504,1.415 2.552,1.415 0.563,0 1.113,-0.159 1.587,-0.456 0.68099996,-0.425 1.15699996,-1.09 1.33699996,-1.871 0.183,-0.782 0.048,-1.586 -0.377,-2.269 z"
     id="path3721"
     inkscape:connector-curvature="0"
     style="fill:url(#SVGID_5_);display:none" /><linearGradient
     id="SVGID_6_"
     gradientUnits="userSpaceOnUse"
     x1="92.723099"
     y1="113.6123"
     x2="107.6533"
     y2="113.6123"
     gradientTransform="translate(-78.761651,-114.785)"><stop
       offset="0"
       style="stop-color:#0090BC"
       id="stop3724" /><stop
       offset="0.2215"
       style="stop-color:#008CB9"
       id="stop3726" /><stop
       offset="0.4194"
       style="stop-color:#0082B0"
       id="stop3728" /><stop
       offset="0.6083"
       style="stop-color:#006FA1"
       id="stop3730" /><stop
       offset="0.7905"
       style="stop-color:#00568B"
       id="stop3732" /><stop
       offset="0.9141"
       style="stop-color:#004079"
       id="stop3734" /></linearGradient><path
     display="none"
     d="m 20.287349,-20.951 c -0.585,-1.099 -1.731,-1.672 -2.977,-1.672 -0.547,0 -1.091,0.137 -1.576,0.395 -0.793,0.423 -1.363,1.017 -1.625,1.875 -0.262,0.858 -0.173,1.768 0.247,2.56 5.113,9.599 7.815,20.557 7.815,31.692 0,1.049 -0.036,2.091 -0.067,2.882 -0.037,0.896 0.278,1.755 0.886,2.416 0.608,0.659 1.436,1.042 2.334,1.078 l 0.137,0.003 c 1.809,0 3.283,-1.414 3.355,-3.223 0.052,-1.25 0.074,-2.223 0.074,-3.156 0.001,-12.229 -2.974,-24.28 -8.603,-34.85 z"
     id="path3736"
     inkscape:connector-curvature="0"
     style="fill:url(#SVGID_6_);display:none" /><linearGradient
     id="SVGID_7_"
     gradientUnits="userSpaceOnUse"
     x1="105.2148"
     y1="104.9619"
     x2="117.6064"
     y2="104.9619"
     gradientTransform="translate(-78.761651,-114.785)"><stop
       offset="0"
       style="stop-color:#0090BC"
       id="stop3739" /><stop
       offset="0.2215"
       style="stop-color:#008CB9"
       id="stop3741" /><stop
       offset="0.4194"
       style="stop-color:#0082B0"
       id="stop3743" /><stop
       offset="0.6083"
       style="stop-color:#006FA1"
       id="stop3745" /><stop
       offset="0.7905"
       style="stop-color:#00568B"
       id="stop3747" /><stop
       offset="0.9141"
       style="stop-color:#004079"
       id="stop3749" /></linearGradient><path
     display="none"
     d="m 38.795349,-0.956 c -1.168,-6.832 -3.155,-13.48 -5.905,-19.765 -0.536,-1.221 -1.743,-1.893 -3.079,-1.893 -0.464,0 -0.918,0.096 -1.347,0.282 -1.695,0.744 -2.471,2.609 -1.73,4.304 2.532,5.78 4.362,11.904 5.439,18.205 0.276,1.618 1.667,2.791 3.309,2.791 0.207,0 0.393,-0.015 0.57,-0.047 0.882,-0.151 1.656,-0.637 2.174,-1.372 0.518,-0.733 0.721,-1.624 0.569,-2.505 z"
     id="path3751"
     inkscape:connector-curvature="0"
     style="fill:url(#SVGID_7_);display:none" /><linearGradient
     id="SVGID_8_"
     gradientUnits="userSpaceOnUse"
     x1="117.6177"
     y1="100.7485"
     x2="127.4468"
     y2="100.7485"
     gradientTransform="translate(-78.761651,-114.785)"><stop
       offset="0"
       style="stop-color:#0090BC"
       id="stop3754" /><stop
       offset="0.2215"
       style="stop-color:#008CB9"
       id="stop3756" /><stop
       offset="0.4194"
       style="stop-color:#0082B0"
       id="stop3758" /><stop
       offset="0.6083"
       style="stop-color:#006FA1"
       id="stop3760" /><stop
       offset="0.7905"
       style="stop-color:#00568B"
       id="stop3762" /><stop
       offset="0.9141"
       style="stop-color:#004079"
       id="stop3764" /></linearGradient><path
     display="none"
     d="m 48.592349,-9.56 c -0.885,-3.652 -2.017,-7.341 -3.364,-10.96 -0.477,-1.282 -1.715,-2.055 -3.082,-2.055 -0.392,0 -0.777,0.07 -1.146,0.208 -0.824,0.306 -1.479,0.828 -1.845,1.627 -0.365,0.799 -0.396,1.692 -0.089,2.515 1.253,3.365 2.306,6.801 3.133,10.211 0.358,1.481 1.67,2.516 3.195,2.516 0.265,0 0.525,-0.031 0.774,-0.093 0.853,-0.205 1.577,-0.732 2.034,-1.481 0.458,-0.75 0.596,-1.634 0.39,-2.488 z"
     id="path3766"
     inkscape:connector-curvature="0"
     style="fill:url(#SVGID_8_);display:none" /><linearGradient
     id="SVGID_9_"
     gradientUnits="userSpaceOnUse"
     x1="130.021"
     y1="99.249001"
     x2="138.269"
     y2="99.249001"
     gradientTransform="translate(-78.761651,-114.785)"><stop
       offset="0"
       style="stop-color:#0090BC"
       id="stop3769" /><stop
       offset="0.2215"
       style="stop-color:#008CB9"
       id="stop3771" /><stop
       offset="0.4194"
       style="stop-color:#0082B0"
       id="stop3773" /><stop
       offset="0.6083"
       style="stop-color:#006FA1"
       id="stop3775" /><stop
       offset="0.7905"
       style="stop-color:#00568B"
       id="stop3777" /><stop
       offset="0.9141"
       style="stop-color:#004079"
       id="stop3779" /></linearGradient><path
     display="none"
     d="m 59.421349,-12.329 c -0.638,-2.618 -1.412,-5.329 -2.299,-8.054 -0.404,-1.243 -1.551,-2.076 -2.858,-2.076 -0.315,0 -0.627,0.049 -0.93,0.147 -1.574,0.515 -2.438,2.214 -1.928,3.789 0.839,2.584 1.573,5.146 2.177,7.619 0.329,1.351 1.529,2.293 2.916,2.293 0.235,0 0.476,-0.029 0.713,-0.087 0.781,-0.188 1.439,-0.669 1.856,-1.356 0.42,-0.688 0.542,-1.494 0.353,-2.275 z"
     id="path3781"
     inkscape:connector-curvature="0"
     style="fill:url(#SVGID_9_);display:none" /><linearGradient
     id="SVGID_10_"
     gradientUnits="userSpaceOnUse"
     x1="37.484402"
     y1="130.21581"
     x2="45.790001"
     y2="130.21581"
     gradientTransform="translate(-78.761651,-114.785)"><stop
       offset="0"
       style="stop-color:#0090BC"
       id="stop3784" /><stop
       offset="0.2215"
       style="stop-color:#008CB9"
       id="stop3786" /><stop
       offset="0.4194"
       style="stop-color:#0082B0"
       id="stop3788" /><stop
       offset="0.6083"
       style="stop-color:#006FA1"
       id="stop3790" /><stop
       offset="0.7905"
       style="stop-color:#00568B"
       id="stop3792" /><stop
       offset="0.9141"
       style="stop-color:#004079"
       id="stop3794" /></linearGradient><path
     display="none"
     d="m -37.127651,11.281 c -2.288,0 -4.15,1.859 -4.15,4.147 0,2.29 1.862,4.153 4.15,4.153 2.292,0 4.156,-1.863 4.156,-4.153 0,-2.288 -1.864,-4.147 -4.156,-4.147 z"
     id="path3796"
     inkscape:connector-curvature="0"
     style="fill:url(#SVGID_10_);display:none" /><linearGradient
     id="SVGID_11_"
     gradientUnits="userSpaceOnUse"
     x1="79.805702"
     y1="103.2568"
     x2="94.512703"
     y2="103.2568"
     gradientTransform="translate(-78.761651,-114.785)"><stop
       offset="0"
       style="stop-color:#0090BC"
       id="stop3799" /><stop
       offset="0.2215"
       style="stop-color:#008CB9"
       id="stop3801" /><stop
       offset="0.4194"
       style="stop-color:#0082B0"
       id="stop3803" /><stop
       offset="0.6083"
       style="stop-color:#006FA1"
       id="stop3805" /><stop
       offset="0.7905"
       style="stop-color:#00568B"
       id="stop3807" /><stop
       offset="0.9141"
       style="stop-color:#004079"
       id="stop3809" /></linearGradient><path
     display="none"
     d="m 15.497349,-3.391 c -0.362,-1.512 -1.085,-3.565 -1.667,-5.212 l -0.054,-0.144 c -0.083,-0.211 -0.166,-0.424 -0.25,-0.635 -0.041,-0.103 -0.082,-0.207 -0.125,-0.312 -0.064,-0.16 -0.131,-0.321 -0.198,-0.481 l -0.012,-0.029 c -0.035,-0.088 -0.073,-0.177 -0.11,-0.266 -0.09,-0.217 -0.184,-0.434 -0.276,-0.649 l -0.093,-0.215 c -0.083,-0.183 -0.163,-0.368 -0.246,-0.55 -0.062,-0.137 -0.126,-0.275 -0.19,-0.415 l -0.041,-0.09 c -1.44,-3.12 -3.1430001,-6.111 -5.0660001,-8.892 -0.627,-0.91 -1.676,-1.334 -2.781,-1.334 -0.685,0 -1.343,0.207 -1.908,0.595 -0.739,0.511 -1.219,1.16 -1.379,2.043 -0.16300004,0.883 0.029,1.775 0.542,2.514 1.116,1.617 2.156,3.321 3.09,5.07 0.579,1.08 1.129,2.201 1.639,3.332 l 0.019,0.046 c 0.046,0.104 0.094,0.209 0.14,0.313 0.032,0.074 0.062,0.146 0.094,0.217 l 0.064,0.151 c 0.052,0.116 0.102,0.236 0.151,0.352 l 0.008,0.021 c 0.319,0.75 0.623,1.518 0.904,2.277 0.022,0.062 0.045,0.124 0.068,0.185 l 0.046,0.131 c 0.015,0.038 0.029,0.076 0.044,0.118 0.055,0.154 0.11,0.31 0.166,0.467 l 0.006,0.018 c 1.477,3.572 5.6810001,4.325 6.4480001,4.325 h 0.012 c 0.429,-0.009 0.75,-0.146 0.956,-0.409 0.386,-0.5 0.284,-1.343 -10e-4,-2.542 z m -0.967,2.596 0,0 0,0 0,0 z"
     id="path3811"
     inkscape:connector-curvature="0"
     style="fill:url(#SVGID_11_);display:none" /><rect
     x="-78.26165"
     y="-114.285"
     display="none"
     stroke-miterlimit="10"
     width="300"
     height="300"
     id="rect3813"
     style="fill:none;stroke:#30ffff;stroke-miterlimit:10;display:none" /><g
     display="none"
     id="g3815"
     style="display:none"
     transform="translate(-78.761651,-114.785)"><g
       display="inline"
       id="g3817"
       style="display:inline"><g
         display="none"
         id="g3819"
         style="display:none"><path
           d="m 66.918,151.073 h 12.159 v 3.691 h -7.67 v 5.188 h 6.748 v 3.501 h -6.748 v 8.816 h -4.489 v -21.196 z"
           id="path3821"
           inkscape:connector-curvature="0"
           style="fill:#495066" /><path
           d="m 84.829,167.625 v -10.854 h 4.233 v 9.993 c 0,1.56 0.542,2.355 2.069,2.355 1.624,0 2.865,-1.56 3.184,-1.942 v -10.406 h 4.233 v 11.044 c 0,1.973 0.223,3.532 0.413,4.455 h -4.169 c -0.128,-0.413 -0.287,-1.432 -0.318,-2.069 -0.828,1.051 -2.418,2.452 -4.997,2.452 -3.407,0 -4.648,-2.195 -4.648,-5.028 z"
           id="path3823"
           inkscape:connector-curvature="0"
           style="fill:#495066" /><path
           d="m 105.863,156.771 h 4.233 v 2.1 c 0.668,-1.146 1.941,-2.482 3.916,-2.482 1.146,0 1.75,0.223 2.1,0.413 l -1.019,3.692 c -0.255,-0.158 -0.732,-0.351 -1.623,-0.351 -1.878,0 -2.993,1.656 -3.375,2.356 v 9.771 h -4.233 v -15.499 z"
           id="path3825"
           inkscape:connector-curvature="0"
           style="fill:#495066" /><path
           d="m 122.184,167.815 v -7.895 h -2.482 v -3.149 h 2.482 v -4.489 h 4.203 v 4.489 h 3.629 v 3.149 h -3.629 v 7.066 c 0,1.527 0.381,2.195 1.56,2.195 0.922,0 1.719,-0.381 2.037,-0.571 l 0.987,3.15 c -0.638,0.351 -1.943,0.892 -3.884,0.892 -3.662,0.001 -4.903,-1.878 -4.903,-4.837 z"
           id="path3827"
           inkscape:connector-curvature="0"
           style="fill:#495066" /><path
           d="m 136.599,149.353 h 4.233 v 9.296 c 0.796,-0.858 2.292,-2.26 4.838,-2.26 3.406,0 4.647,2.163 4.647,5.028 v 10.854 h -4.234 v -9.993 c 0,-1.561 -0.54,-2.356 -2.037,-2.356 -1.654,0 -2.896,1.528 -3.214,1.943 v 10.406 h -4.233 v -22.918 z"
           id="path3829"
           inkscape:connector-curvature="0"
           style="fill:#495066" /><path
           d="m 156.424,164.44 c 0,-4.901 3.374,-8.052 7.671,-8.052 4.393,0 6.747,2.801 6.747,7.639 0,0.478 -0.032,0.955 -0.062,1.464 h -9.805 c 0.191,2.292 1.369,4.012 3.948,4.012 2.1,0 3.278,-0.701 4.042,-1.082 l 1.368,2.736 c -1.019,0.572 -2.609,1.496 -5.793,1.496 -5.187,0 -8.116,-3.278 -8.116,-8.213 z m 10.281,-1.814 c -0.032,-1.75 -0.731,-3.182 -2.675,-3.182 -1.814,0 -2.801,1.177 -3.119,3.182 h 5.794 z"
           id="path3831"
           inkscape:connector-curvature="0"
           style="fill:#495066" /><path
           d="m 177.235,156.771 h 4.233 v 2.1 c 0.668,-1.146 1.94,-2.482 3.915,-2.482 1.146,0 1.751,0.223 2.1,0.413 l -1.019,3.692 c -0.254,-0.158 -0.731,-0.351 -1.622,-0.351 -1.879,0 -2.993,1.656 -3.374,2.356 v 9.771 h -4.233 v -15.499 z"
           id="path3833"
           inkscape:connector-curvature="0"
           style="fill:#495066" /><path
           d="m 202.755,151.073 h 7.067 c 4.965,0 7.83,2.133 7.83,6.111 0,3.469 -2.355,5.219 -4.935,5.698 v 0.062 c 0.573,0.414 1.337,1.241 2.484,3.023 l 4.137,6.302 h -4.933 l -3.884,-6.047 c -1.656,-2.451 -2.005,-2.673 -2.992,-2.673 h -0.286 v 8.72 h -4.489 v -21.196 z m 6.939,9.293 c 2.388,0 3.501,-1.081 3.501,-2.928 0,-1.942 -1.113,-2.929 -3.691,-2.929 h -2.26 v 5.856 h 2.45 z"
           id="path3835"
           inkscape:connector-curvature="0"
           style="fill:#495066" /><path
           d="m 223.241,164.44 c 0,-4.901 3.374,-8.052 7.671,-8.052 4.394,0 6.749,2.801 6.749,7.639 0,0.478 -0.032,0.955 -0.064,1.464 h -9.803 c 0.19,2.292 1.368,4.012 3.946,4.012 2.102,0 3.278,-0.701 4.042,-1.082 l 1.37,2.736 c -1.02,0.572 -2.611,1.496 -5.793,1.496 -5.189,0 -8.118,-3.278 -8.118,-8.213 z m 10.281,-1.814 c -0.031,-1.75 -0.731,-3.182 -2.673,-3.182 -1.814,0 -2.803,1.177 -3.119,3.182 h 5.792 z"
           id="path3837"
           inkscape:connector-curvature="0"
           style="fill:#495066" /><path
           d="m 242.807,168.292 c 0,-4.042 4.17,-5.506 8.274,-5.506 h 0.542 v -0.892 c 0,-1.496 -0.668,-2.164 -2.515,-2.164 -1.687,0 -3.023,0.732 -3.946,1.464 l -1.847,-2.578 c 1.241,-1.146 3.343,-2.228 6.271,-2.228 4.234,0 6.239,1.622 6.239,5.729 v 5.57 c 0,2.101 0.223,3.597 0.445,4.583 h -4.17 c -0.126,-0.381 -0.223,-1.177 -0.254,-1.654 -0.827,1.019 -2.354,2.037 -4.359,2.037 -2.643,0 -4.68,-1.591 -4.68,-4.361 z m 8.816,-0.096 v -2.8 h -0.542 c -2.482,0 -4.2,0.73 -4.2,2.547 0,1.145 0.922,1.622 1.877,1.622 1.304,0 2.197,-0.603 2.865,-1.369 z"
           id="path3839"
           inkscape:connector-curvature="0"
           style="fill:#495066" /><path
           d="m 261.271,164.537 c 0,-5.22 3.469,-8.148 8.148,-8.148 2.515,0 4.01,0.764 4.742,1.241 l -1.369,2.896 c -0.7,-0.445 -1.687,-0.923 -3.246,-0.923 -2.482,0 -3.788,1.941 -3.788,4.808 0,2.863 1.241,4.965 3.884,4.965 1.782,0 2.863,-0.669 3.342,-0.954 l 1.305,2.831 c -0.732,0.478 -2.164,1.401 -4.997,1.401 -4.965,-0.001 -8.021,-3.311 -8.021,-8.117 z"
           id="path3841"
           inkscape:connector-curvature="0"
           style="fill:#495066" /><path
           d="m 279.691,149.353 h 4.234 v 9.296 c 0.795,-0.858 2.29,-2.26 4.837,-2.26 3.406,0 4.647,2.163 4.647,5.028 v 10.854 h -4.233 v -9.993 c 0,-1.561 -0.541,-2.356 -2.037,-2.356 -1.655,0 -2.896,1.528 -3.214,1.943 v 10.406 h -4.234 v -22.918 z"
           id="path3843"
           inkscape:connector-curvature="0"
           style="fill:#495066" /></g></g></g><linearGradient
     id="SVGID_12_"
     gradientUnits="userSpaceOnUse"
     x1="31.5483"
     y1="119.2148"
     x2="51.841801"
     y2="119.2148"
     gradientTransform="translate(-78.761651,-114.785)"><stop
       offset="0"
       style="stop-color:#0090BC"
       id="stop3846" /><stop
       offset="0.2215"
       style="stop-color:#008CB9"
       id="stop3848" /><stop
       offset="0.4194"
       style="stop-color:#0082B0"
       id="stop3850" /><stop
       offset="0.6083"
       style="stop-color:#006FA1"
       id="stop3852" /><stop
       offset="0.7905"
       style="stop-color:#00568B"
       id="stop3854" /><stop
       offset="0.9141"
       style="stop-color:#004079"
       id="stop3856" /></linearGradient><path
     display="none"
     d="m -27.712651,4.017 c -2.5,-2.716 -5.844,-4.214 -9.415,-4.214 -3.478,0 -6.765,1.438 -9.257,4.048 -1.144,1.2 -1.097,3.106 0.102,4.25 0.562,0.536 1.296,0.83 2.073,0.83 0.83,0 1.602,-0.331 2.175,-0.931 1.345,-1.409 3.088,-2.186 4.907,-2.186 1.868,0 3.641,0.807 4.991,2.271 0.567,0.617 1.375,0.972 2.211,0.972 0.757,0 1.479,-0.282 2.037,-0.794 1.219,-1.122 1.299,-3.027 0.176,-4.246 z"
     id="path3858"
     inkscape:connector-curvature="0"
     style="fill:url(#SVGID_12_);display:none" /><linearGradient
     id="SVGID_13_"
     gradientUnits="userSpaceOnUse"
     x1="25.811001"
     y1="108.9707"
     x2="57.273399"
     y2="108.9707"
     gradientTransform="translate(-78.761651,-114.785)"><stop
       offset="0"
       style="stop-color:#0090BC"
       id="stop3861" /><stop
       offset="0.2215"
       style="stop-color:#008CB9"
       id="stop3863" /><stop
       offset="0.4194"
       style="stop-color:#0082B0"
       id="stop3865" /><stop
       offset="0.6083"
       style="stop-color:#006FA1"
       id="stop3867" /><stop
       offset="0.7905"
       style="stop-color:#00568B"
       id="stop3869" /><stop
       offset="0.9141"
       style="stop-color:#004079"
       id="stop3871" /></linearGradient><path
     display="none"
     d="m -22.533651,-5.774 c -4.194,-3.606 -9.24,-5.512 -14.593,-5.512 -5.375,0 -10.632,2.019 -14.801,5.681 -0.604,0.53 -0.963,1.263 -1.016,2.065 -0.052,0.8 0.212,1.573 0.742,2.177 0.57,0.649 1.394,1.021 2.258,1.021 0.73,0 1.435,-0.266 1.982,-0.748 3.117,-2.738 6.862,-4.185 10.834,-4.185 3.897,0 7.587,1.403 10.674,4.06 0.544,0.467 1.24,0.725 1.958,0.725 0.877,0 1.709,-0.38 2.28,-1.046 0.524,-0.607 0.78,-1.384 0.719,-2.185 -0.061,-0.8 -0.43,-1.53 -1.037,-2.053 z"
     id="path3873"
     inkscape:connector-curvature="0"
     style="fill:url(#SVGID_13_);display:none" /><linearGradient
     id="SVGID_14_"
     gradientUnits="userSpaceOnUse"
     x1="16.815901"
     y1="100.3838"
     x2="66.251999"
     y2="100.3838"
     gradientTransform="translate(-78.761651,-114.785)"><stop
       offset="0"
       style="stop-color:#0090BC"
       id="stop3876" /><stop
       offset="0.2215"
       style="stop-color:#008CB9"
       id="stop3878" /><stop
       offset="0.4194"
       style="stop-color:#0082B0"
       id="stop3880" /><stop
       offset="0.6083"
       style="stop-color:#006FA1"
       id="stop3882" /><stop
       offset="0.7905"
       style="stop-color:#00568B"
       id="stop3884" /><stop
       offset="0.9141"
       style="stop-color:#004079"
       id="stop3886" /></linearGradient><path
     display="none"
     d="m -13.301651,-11.691 c -6.352,-6.893 -14.813,-10.688 -23.826,-10.688 -9.124,0 -17.662,3.882 -24.042,10.932 -1.113,1.228 -1.017,3.131 0.212,4.246 0.555,0.502 1.269,0.776 2.016,0.776 0.847,0 1.659,-0.359 2.228,-0.988 5.228,-5.774 12.184,-8.955 19.587,-8.955 7.315,0 14.206,3.108 19.405,8.752 0.567,0.613 1.374,0.966 2.21,0.966 0.755,0 1.479,-0.282 2.036,-0.796 1.216,-1.121 1.295,-3.024 0.174,-4.245 z"
     id="path3888"
     inkscape:connector-curvature="0"
     style="fill:url(#SVGID_14_);display:none" /><linearGradient
     id="SVGID_15_"
     gradientUnits="userSpaceOnUse"
     x1="7.2108998"
     y1="97.8936"
     x2="17.665001"
     y2="97.8936"
     gradientTransform="translate(-78.761651,-114.785)"><stop
       offset="0"
       style="stop-color:#0090BC"
       id="stop3891" /><stop
       offset="0.3904"
       style="stop-color:#008DB8"
       id="stop3893" /><stop
       offset="0.7386"
       style="stop-color:#0082AE"
       id="stop3895" /><stop
       offset="0.9141"
       style="stop-color:#007AA5"
       id="stop3897" /></linearGradient><path
     display="none"
     d="m -61.930651,-21.452 c -0.574,-0.598 -1.345,-0.927 -2.171,-0.927 -0.778,0 -1.516,0.297 -2.078,0.833 -1.704,1.63 -3.303,3.415 -4.751,5.305 -0.487,0.638 -0.7,1.426 -0.594,2.224 0.106,0.794 0.514,1.501 1.151,1.989 0.529,0.406 1.161,0.623 1.826,0.623 0.944,0 1.815,-0.431 2.388,-1.179 1.263,-1.648 2.654,-3.203 4.135,-4.618 0.579,-0.555 0.908,-1.304 0.927,-2.104 0.017,-0.802 -0.279,-1.565 -0.833,-2.146 z"
     id="path3899"
     inkscape:connector-curvature="0"
     style="fill:url(#SVGID_15_);display:none" /><linearGradient
     id="SVGID_16_"
     gradientUnits="userSpaceOnUse"
     x1="65.851097"
     y1="99.602097"
     x2="78.662102"
     y2="99.602097"
     gradientTransform="translate(-78.761651,-114.785)"><stop
       offset="0"
       style="stop-color:#0090BC"
       id="stop3902" /><stop
       offset="0.2215"
       style="stop-color:#008CB9"
       id="stop3904" /><stop
       offset="0.4194"
       style="stop-color:#0082B0"
       id="stop3906" /><stop
       offset="0.6083"
       style="stop-color:#006FA1"
       id="stop3908" /><stop
       offset="0.7905"
       style="stop-color:#00568B"
       id="stop3910" /><stop
       offset="0.9141"
       style="stop-color:#004079"
       id="stop3912" /></linearGradient><path
     display="none"
     d="m -0.55665114,-12.583 c -2.05299996,-3.286 -4.49799996,-6.302 -7.27099996,-8.96 -0.562,-0.538 -1.301,-0.835 -2.081,-0.835 -0.8229999,0 -1.5949999,0.329 -2.1669999,0.924 -1.148,1.196 -1.107,3.104 0.089,4.25 2.4179999,2.321 4.5489999,4.947 6.3309999,7.802 0.551,0.886 1.504,1.415 2.552,1.415 0.563,0 1.113,-0.159 1.587,-0.456 0.68099996,-0.425 1.15699996,-1.09 1.33699996,-1.871 0.183,-0.782 0.048,-1.586 -0.377,-2.269 z"
     id="path3914"
     inkscape:connector-curvature="0"
     style="fill:url(#SVGID_16_);display:none" /><linearGradient
     id="SVGID_17_"
     gradientUnits="userSpaceOnUse"
     x1="92.723099"
     y1="113.6123"
     x2="107.6533"
     y2="113.6123"
     gradientTransform="translate(-78.761651,-114.785)"><stop
       offset="0"
       style="stop-color:#0090BC"
       id="stop3917" /><stop
       offset="0.2215"
       style="stop-color:#008CB9"
       id="stop3919" /><stop
       offset="0.4194"
       style="stop-color:#0082B0"
       id="stop3921" /><stop
       offset="0.6083"
       style="stop-color:#006FA1"
       id="stop3923" /><stop
       offset="0.7905"
       style="stop-color:#00568B"
       id="stop3925" /><stop
       offset="0.9141"
       style="stop-color:#004079"
       id="stop3927" /></linearGradient><path
     display="none"
     d="m 20.287349,-20.951 c -0.585,-1.099 -1.731,-1.672 -2.977,-1.672 -0.547,0 -1.091,0.137 -1.576,0.395 -0.793,0.423 -1.363,1.017 -1.625,1.875 -0.262,0.858 -0.173,1.768 0.247,2.56 5.113,9.599 7.815,20.557 7.815,31.692 0,1.049 -0.036,2.091 -0.067,2.882 -0.037,0.896 0.278,1.755 0.886,2.416 0.608,0.659 1.436,1.042 2.334,1.078 l 0.137,0.003 c 1.809,0 3.283,-1.414 3.355,-3.223 0.052,-1.25 0.074,-2.223 0.074,-3.156 0.001,-12.229 -2.974,-24.28 -8.603,-34.85 z"
     id="path3929"
     inkscape:connector-curvature="0"
     style="fill:url(#SVGID_17_);display:none" /><linearGradient
     id="SVGID_18_"
     gradientUnits="userSpaceOnUse"
     x1="105.2148"
     y1="104.9619"
     x2="117.6064"
     y2="104.9619"
     gradientTransform="translate(-78.761651,-114.785)"><stop
       offset="0"
       style="stop-color:#0090BC"
       id="stop3932" /><stop
       offset="0.2215"
       style="stop-color:#008CB9"
       id="stop3934" /><stop
       offset="0.4194"
       style="stop-color:#0082B0"
       id="stop3936" /><stop
       offset="0.6083"
       style="stop-color:#006FA1"
       id="stop3938" /><stop
       offset="0.7905"
       style="stop-color:#00568B"
       id="stop3940" /><stop
       offset="0.9141"
       style="stop-color:#004079"
       id="stop3942" /></linearGradient><path
     display="none"
     d="m 38.795349,-0.956 c -1.168,-6.832 -3.155,-13.48 -5.905,-19.765 -0.536,-1.221 -1.743,-1.893 -3.079,-1.893 -0.464,0 -0.918,0.096 -1.347,0.282 -1.695,0.744 -2.471,2.609 -1.73,4.304 2.532,5.78 4.362,11.904 5.439,18.205 0.276,1.618 1.667,2.791 3.309,2.791 0.207,0 0.393,-0.015 0.57,-0.047 0.882,-0.151 1.656,-0.637 2.174,-1.372 0.518,-0.733 0.721,-1.624 0.569,-2.505 z"
     id="path3944"
     inkscape:connector-curvature="0"
     style="fill:url(#SVGID_18_);display:none" /><linearGradient
     id="SVGID_19_"
     gradientUnits="userSpaceOnUse"
     x1="117.6177"
     y1="100.7485"
     x2="127.4468"
     y2="100.7485"
     gradientTransform="translate(-78.761651,-114.785)"><stop
       offset="0"
       style="stop-color:#0090BC"
       id="stop3947" /><stop
       offset="0.2215"
       style="stop-color:#008CB9"
       id="stop3949" /><stop
       offset="0.4194"
       style="stop-color:#0082B0"
       id="stop3951" /><stop
       offset="0.6083"
       style="stop-color:#006FA1"
       id="stop3953" /><stop
       offset="0.7905"
       style="stop-color:#00568B"
       id="stop3955" /><stop
       offset="0.9141"
       style="stop-color:#004079"
       id="stop3957" /></linearGradient><path
     display="none"
     d="m 48.592349,-9.56 c -0.885,-3.652 -2.017,-7.341 -3.364,-10.96 -0.477,-1.282 -1.715,-2.055 -3.082,-2.055 -0.392,0 -0.777,0.07 -1.146,0.208 -0.824,0.306 -1.479,0.828 -1.845,1.627 -0.365,0.799 -0.396,1.692 -0.089,2.515 1.253,3.365 2.306,6.801 3.133,10.211 0.358,1.481 1.67,2.516 3.195,2.516 0.265,0 0.525,-0.031 0.774,-0.093 0.853,-0.205 1.577,-0.732 2.034,-1.481 0.458,-0.75 0.596,-1.634 0.39,-2.488 z"
     id="path3959"
     inkscape:connector-curvature="0"
     style="fill:url(#SVGID_19_);display:none" /><linearGradient
     id="SVGID_20_"
     gradientUnits="userSpaceOnUse"
     x1="130.021"
     y1="99.249001"
     x2="138.269"
     y2="99.249001"
     gradientTransform="translate(-78.761651,-114.785)"><stop
       offset="0"
       style="stop-color:#0090BC"
       id="stop3962" /><stop
       offset="0.2215"
       style="stop-color:#008CB9"
       id="stop3964" /><stop
       offset="0.4194"
       style="stop-color:#0082B0"
       id="stop3966" /><stop
       offset="0.6083"
       style="stop-color:#006FA1"
       id="stop3968" /><stop
       offset="0.7905"
       style="stop-color:#00568B"
       id="stop3970" /><stop
       offset="0.9141"
       style="stop-color:#004079"
       id="stop3972" /></linearGradient><path
     display="none"
     d="m 59.421349,-12.329 c -0.638,-2.618 -1.412,-5.329 -2.299,-8.054 -0.404,-1.243 -1.551,-2.076 -2.858,-2.076 -0.315,0 -0.627,0.049 -0.93,0.147 -1.574,0.515 -2.438,2.214 -1.928,3.789 0.839,2.584 1.573,5.146 2.177,7.619 0.329,1.351 1.529,2.293 2.916,2.293 0.235,0 0.476,-0.029 0.713,-0.087 0.781,-0.188 1.439,-0.669 1.856,-1.356 0.42,-0.688 0.542,-1.494 0.353,-2.275 z"
     id="path3974"
     inkscape:connector-curvature="0"
     style="fill:url(#SVGID_20_);display:none" /><linearGradient
     id="SVGID_21_"
     gradientUnits="userSpaceOnUse"
     x1="37.484402"
     y1="130.21581"
     x2="45.790001"
     y2="130.21581"
     gradientTransform="translate(-78.761651,-114.785)"><stop
       offset="0"
       style="stop-color:#0090BC"
       id="stop3977" /><stop
       offset="0.2215"
       style="stop-color:#008CB9"
       id="stop3979" /><stop
       offset="0.4194"
       style="stop-color:#0082B0"
       id="stop3981" /><stop
       offset="0.6083"
       style="stop-color:#006FA1"
       id="stop3983" /><stop
       offset="0.7905"
       style="stop-color:#00568B"
       id="stop3985" /><stop
       offset="0.9141"
       style="stop-color:#004079"
       id="stop3987" /></linearGradient><path
     display="none"
     d="m -37.127651,11.281 c -2.288,0 -4.15,1.859 -4.15,4.147 0,2.29 1.862,4.153 4.15,4.153 2.292,0 4.156,-1.863 4.156,-4.153 0,-2.288 -1.864,-4.147 -4.156,-4.147 z"
     id="path3989"
     inkscape:connector-curvature="0"
     style="fill:url(#SVGID_21_);display:none" /><linearGradient
     id="SVGID_22_"
     gradientUnits="userSpaceOnUse"
     x1="79.805702"
     y1="103.2568"
     x2="94.512703"
     y2="103.2568"
     gradientTransform="translate(-78.761651,-114.785)"><stop
       offset="0"
       style="stop-color:#0090BC"
       id="stop3992" /><stop
       offset="0.2215"
       style="stop-color:#008CB9"
       id="stop3994" /><stop
       offset="0.4194"
       style="stop-color:#0082B0"
       id="stop3996" /><stop
       offset="0.6083"
       style="stop-color:#006FA1"
       id="stop3998" /><stop
       offset="0.7905"
       style="stop-color:#00568B"
       id="stop4000" /><stop
       offset="0.9141"
       style="stop-color:#004079"
       id="stop4002" /></linearGradient><path
     display="none"
     d="m 15.497349,-3.391 c -0.362,-1.512 -1.085,-3.565 -1.667,-5.212 l -0.054,-0.144 c -0.083,-0.211 -0.166,-0.424 -0.25,-0.635 -0.041,-0.103 -0.082,-0.207 -0.125,-0.312 -0.064,-0.16 -0.131,-0.321 -0.198,-0.481 l -0.012,-0.029 c -0.035,-0.088 -0.073,-0.177 -0.11,-0.266 -0.09,-0.217 -0.184,-0.434 -0.276,-0.649 l -0.093,-0.215 c -0.083,-0.183 -0.163,-0.368 -0.246,-0.55 -0.062,-0.137 -0.126,-0.275 -0.19,-0.415 l -0.041,-0.09 c -1.44,-3.12 -3.1430001,-6.111 -5.0660001,-8.892 -0.627,-0.91 -1.676,-1.334 -2.781,-1.334 -0.685,0 -1.343,0.207 -1.908,0.595 -0.739,0.511 -1.219,1.16 -1.379,2.043 -0.16300004,0.883 0.029,1.775 0.542,2.514 1.116,1.617 2.156,3.321 3.09,5.07 0.579,1.08 1.129,2.201 1.639,3.332 l 0.019,0.046 c 0.046,0.104 0.094,0.209 0.14,0.313 0.032,0.074 0.062,0.146 0.094,0.217 l 0.064,0.151 c 0.052,0.116 0.102,0.236 0.151,0.352 l 0.008,0.021 c 0.319,0.75 0.623,1.518 0.904,2.277 0.022,0.062 0.045,0.124 0.068,0.185 l 0.046,0.131 c 0.015,0.038 0.029,0.076 0.044,0.118 0.055,0.154 0.11,0.31 0.166,0.467 l 0.006,0.018 c 1.477,3.572 5.6810001,4.325 6.4480001,4.325 h 0.012 c 0.429,-0.009 0.75,-0.146 0.956,-0.409 0.386,-0.5 0.284,-1.343 -10e-4,-2.542 z m -0.967,2.596 0,0 0,0 0,0 z"
     id="path4004"
     inkscape:connector-curvature="0"
     style="fill:url(#SVGID_22_);display:none" /><rect
     x="-78.26165"
     y="-114.285"
     display="none"
     stroke-miterlimit="10"
     width="300"
     height="300"
     id="rect4006"
     style="fill:none;stroke:#30ffff;stroke-miterlimit:10;display:none" /><g
     id="g4008"
     transform="translate(-78.761651,-114.785)"><g
       id="g4010"><g
         id="g4012"><path
           d="m 108.614,141.74 h 6.079 v 1.846 h -3.835 v 2.595 h 3.374 v 1.75 h -3.374 v 4.408 h -2.244 V 141.74 z"
           id="path4014"
           inkscape:connector-curvature="0"
           style="fill:#495066" /><path
           d="m 117.569,150.017 v -5.427 h 2.117 v 4.996 c 0,0.78 0.271,1.178 1.035,1.178 0.812,0 1.433,-0.779 1.592,-0.971 v -5.203 h 2.116 v 5.521 c 0,0.986 0.111,1.767 0.207,2.228 h -2.085 c -0.063,-0.206 -0.143,-0.716 -0.159,-1.034 -0.414,0.525 -1.209,1.226 -2.498,1.226 -1.704,-0.001 -2.325,-1.098 -2.325,-2.514 z"
           id="path4016"
           inkscape:connector-curvature="0"
           style="fill:#495066" /><path
           d="m 128.087,144.59 h 2.116 v 1.05 c 0.334,-0.573 0.971,-1.241 1.958,-1.241 0.573,0 0.875,0.111 1.05,0.206 l -0.509,1.847 c -0.128,-0.079 -0.366,-0.176 -0.812,-0.176 -0.939,0 -1.497,0.828 -1.688,1.179 v 4.885 h -2.116 v -7.75 z"
           id="path4018"
           inkscape:connector-curvature="0"
           style="fill:#495066" /><path
           d="m 136.247,150.111 v -3.947 h -1.241 v -1.574 h 1.241 v -2.245 h 2.102 v 2.245 h 1.814 v 1.574 h -1.814 v 3.533 c 0,0.764 0.19,1.098 0.779,1.098 0.461,0 0.859,-0.19 1.019,-0.285 l 0.494,1.575 c -0.319,0.175 -0.971,0.445 -1.942,0.445 -1.831,0 -2.452,-0.939 -2.452,-2.419 z"
           id="path4020"
           inkscape:connector-curvature="0"
           style="fill:#495066" /><path
           d="m 143.455,140.88 h 2.116 v 4.648 c 0.398,-0.43 1.146,-1.13 2.419,-1.13 1.703,0 2.324,1.081 2.324,2.514 v 5.427 h -2.117 v -4.996 c 0,-0.78 -0.27,-1.179 -1.019,-1.179 -0.827,0 -1.448,0.765 -1.607,0.972 v 5.203 h -2.116 V 140.88 z"
           id="path4022"
           inkscape:connector-curvature="0"
           style="fill:#495066" /><path
           d="m 153.367,148.424 c 0,-2.45 1.688,-4.025 3.836,-4.025 2.195,0 3.373,1.4 3.373,3.819 0,0.238 -0.016,0.478 -0.031,0.731 h -4.902 c 0.096,1.146 0.685,2.006 1.975,2.006 1.049,0 1.639,-0.351 2.021,-0.541 l 0.685,1.368 c -0.51,0.286 -1.305,0.748 -2.896,0.748 -2.596,0 -4.061,-1.638 -4.061,-4.106 z m 5.141,-0.907 c -0.016,-0.875 -0.365,-1.591 -1.338,-1.591 -0.906,0 -1.4,0.589 -1.559,1.591 h 2.897 z"
           id="path4024"
           inkscape:connector-curvature="0"
           style="fill:#495066" /><path
           d="m 163.773,144.59 h 2.116 v 1.05 c 0.334,-0.573 0.97,-1.241 1.958,-1.241 0.572,0 0.875,0.111 1.049,0.206 l -0.509,1.847 c -0.127,-0.079 -0.366,-0.176 -0.812,-0.176 -0.939,0 -1.496,0.828 -1.687,1.179 v 4.885 h -2.116 v -7.75 z"
           id="path4026"
           inkscape:connector-curvature="0"
           style="fill:#495066" /><path
           d="m 176.533,141.74 h 3.533 c 2.482,0 3.915,1.066 3.915,3.056 0,1.734 -1.178,2.609 -2.468,2.85 v 0.031 c 0.287,0.207 0.669,0.62 1.242,1.512 l 2.068,3.15 h -2.466 l -1.942,-3.023 c -0.828,-1.226 -1.002,-1.336 -1.496,-1.336 h -0.143 v 4.359 h -2.244 V 141.74 z m 3.469,4.647 c 1.194,0 1.751,-0.54 1.751,-1.464 0,-0.971 -0.557,-1.464 -1.846,-1.464 h -1.13 v 2.928 h 1.225 z"
           id="path4028"
           inkscape:connector-curvature="0"
           style="fill:#495066" /><path
           d="m 186.775,148.424 c 0,-2.45 1.688,-4.025 3.836,-4.025 2.197,0 3.375,1.4 3.375,3.819 0,0.238 -0.017,0.478 -0.033,0.731 h -4.9 c 0.095,1.146 0.684,2.006 1.973,2.006 1.051,0 1.639,-0.351 2.021,-0.541 l 0.685,1.368 c -0.51,0.286 -1.306,0.748 -2.896,0.748 -2.596,0 -4.061,-1.638 -4.061,-4.106 z m 5.141,-0.907 c -0.016,-0.875 -0.365,-1.591 -1.336,-1.591 -0.907,0 -1.401,0.589 -1.56,1.591 h 2.896 z"
           id="path4030"
           inkscape:connector-curvature="0"
           style="fill:#495066" /><path
           d="m 196.559,150.35 c 0,-2.021 2.085,-2.753 4.137,-2.753 h 0.271 v -0.445 c 0,-0.748 -0.334,-1.082 -1.258,-1.082 -0.843,0 -1.512,0.366 -1.973,0.731 l -0.924,-1.289 c 0.621,-0.573 1.672,-1.113 3.136,-1.113 2.117,0 3.12,0.811 3.12,2.864 v 2.785 c 0,1.05 0.111,1.798 0.223,2.291 h -2.086 c -0.062,-0.19 -0.111,-0.588 -0.127,-0.827 -0.414,0.51 -1.178,1.019 -2.18,1.019 -1.321,-0.001 -2.339,-0.797 -2.339,-2.181 z m 4.408,-0.048 v -1.399 h -0.271 c -1.24,0 -2.1,0.365 -2.1,1.273 0,0.572 0.461,0.811 0.938,0.811 0.653,-0.001 1.099,-0.302 1.433,-0.685 z"
           id="path4032"
           inkscape:connector-curvature="0"
           style="fill:#495066" /><path
           d="m 205.791,148.473 c 0,-2.61 1.734,-4.074 4.074,-4.074 1.258,0 2.005,0.382 2.371,0.62 l -0.685,1.448 c -0.351,-0.223 -0.843,-0.462 -1.623,-0.462 -1.241,0 -1.894,0.971 -1.894,2.404 0,1.432 0.62,2.482 1.941,2.482 0.891,0 1.432,-0.335 1.671,-0.478 l 0.652,1.416 c -0.366,0.238 -1.082,0.7 -2.499,0.7 -2.481,0.001 -4.008,-1.654 -4.008,-4.056 z"
           id="path4034"
           inkscape:connector-curvature="0"
           style="fill:#495066" /><path
           d="m 215.001,140.88 h 2.117 v 4.648 c 0.397,-0.43 1.146,-1.13 2.419,-1.13 1.703,0 2.323,1.081 2.323,2.514 v 5.427 h -2.116 v -4.996 c 0,-0.78 -0.271,-1.179 -1.02,-1.179 -0.827,0 -1.447,0.765 -1.606,0.972 v 5.203 h -2.117 V 140.88 z"
           id="path4036"
           inkscape:connector-curvature="0"
           style="fill:#495066" /></g></g></g><linearGradient
     id="SVGID_23_"
     gradientUnits="userSpaceOnUse"
     x1="90.929703"
     y1="125.8115"
     x2="101.0762"
     y2="125.8115"
     gradientTransform="translate(-78.761651,-114.785)"><stop
       offset="0"
       style="stop-color:#0090BC"
       id="stop4039" /><stop
       offset="0.2215"
       style="stop-color:#008CB9"
       id="stop4041" /><stop
       offset="0.4194"
       style="stop-color:#0082B0"
       id="stop4043" /><stop
       offset="0.6083"
       style="stop-color:#006FA1"
       id="stop4045" /><stop
       offset="0.7905"
       style="stop-color:#00568B"
       id="stop4047" /><stop
       offset="0.9141"
       style="stop-color:#004079"
       id="stop4049" /></linearGradient><path
     d="m 21.918349,10.819 c -1.25,-1.358 -2.922,-2.106 -4.707,-2.106 -1.739,0 -3.383,0.719 -4.629,2.024 -0.572,0.6 -0.549,1.553 0.051,2.125 0.281,0.268 0.648,0.415 1.037,0.415 0.415,0 0.801,-0.165 1.087,-0.465 0.672,-0.705 1.544,-1.093 2.454,-1.093 0.934,0 1.82,0.404 2.495,1.135 0.284,0.309 0.688,0.486 1.106,0.486 0.378,0 0.739,-0.141 1.019,-0.397 0.608,-0.561 0.648,-1.513 0.087,-2.124 z"
     id="path4051"
     inkscape:connector-curvature="0"
     style="fill:url(#SVGID_23_)" /><linearGradient
     id="SVGID_24_"
     gradientUnits="userSpaceOnUse"
     x1="88.060501"
     y1="120.689"
     x2="103.792"
     y2="120.689"
     gradientTransform="translate(-78.761651,-114.785)"><stop
       offset="0"
       style="stop-color:#0090BC"
       id="stop4054" /><stop
       offset="0.2215"
       style="stop-color:#008CB9"
       id="stop4056" /><stop
       offset="0.4194"
       style="stop-color:#0082B0"
       id="stop4058" /><stop
       offset="0.6083"
       style="stop-color:#006FA1"
       id="stop4060" /><stop
       offset="0.7905"
       style="stop-color:#00568B"
       id="stop4062" /><stop
       offset="0.9141"
       style="stop-color:#004079"
       id="stop4064" /></linearGradient><path
     d="m 24.507349,5.924 c -2.097,-1.803 -4.62,-2.756 -7.296,-2.756 -2.688,0 -5.316,1.009 -7.4010001,2.84 -0.302,0.265 -0.481,0.631 -0.508,1.033 -0.026,0.4 0.106,0.786 0.371,1.088 0.285,0.325 0.6970001,0.511 1.1290001,0.511 0.365,0 0.717,-0.133 0.991,-0.374 1.558,-1.369 3.431,-2.092 5.417,-2.092 1.948,0 3.793,0.701 5.337,2.029 0.272,0.234 0.62,0.362 0.979,0.362 0.439,0 0.855,-0.189 1.14,-0.522 0.262,-0.304 0.39,-0.692 0.359,-1.093 -0.03,-0.399 -0.214,-0.764 -0.518,-1.026 z"
     id="path4066"
     inkscape:connector-curvature="0"
     style="fill:url(#SVGID_24_)" /><linearGradient
     id="SVGID_25_"
     gradientUnits="userSpaceOnUse"
     x1="83.563004"
     y1="116.3955"
     x2="108.2812"
     y2="116.3955"
     gradientTransform="translate(-78.761651,-114.785)"><stop
       offset="0"
       style="stop-color:#0090BC"
       id="stop4069" /><stop
       offset="0.2215"
       style="stop-color:#008CB9"
       id="stop4071" /><stop
       offset="0.4194"
       style="stop-color:#0082B0"
       id="stop4073" /><stop
       offset="0.6083"
       style="stop-color:#006FA1"
       id="stop4075" /><stop
       offset="0.7905"
       style="stop-color:#00568B"
       id="stop4077" /><stop
       offset="0.9141"
       style="stop-color:#004079"
       id="stop4079" /></linearGradient><path
     d="m 29.123349,2.966 c -3.176,-3.446 -7.407,-5.344 -11.913,-5.344 -4.562,0 -8.8310001,1.941 -12.0210001,5.466 -0.557,0.614 -0.509,1.566 0.106,2.123 0.277,0.251 0.634,0.388 1.008,0.388 0.423,0 0.829,-0.18 1.113,-0.494 2.6140001,-2.887 6.0920001,-4.477 9.7940001,-4.477 3.657,0 7.103,1.554 9.702,4.376 0.284,0.306 0.687,0.483 1.105,0.483 0.377,0 0.739,-0.141 1.018,-0.398 0.609,-0.561 0.648,-1.513 0.088,-2.123 z"
     id="path4081"
     inkscape:connector-curvature="0"
     style="fill:url(#SVGID_25_)" /><linearGradient
     id="SVGID_26_"
     gradientUnits="userSpaceOnUse"
     x1="78.7603"
     y1="115.1509"
     x2="83.987801"
     y2="115.1509"
     gradientTransform="translate(-78.761651,-114.785)"><stop
       offset="0"
       style="stop-color:#0090BC"
       id="stop4084" /><stop
       offset="0.3904"
       style="stop-color:#008DB8"
       id="stop4086" /><stop
       offset="0.7386"
       style="stop-color:#0082AE"
       id="stop4088" /><stop
       offset="0.9141"
       style="stop-color:#007AA5"
       id="stop4090" /></linearGradient><path
     d="m 4.8093489,-1.914 c -0.287,-0.299 -0.672,-0.463 -1.085,-0.463 -0.39,0 -0.758,0.148 -1.039,0.417 -0.852,0.814 -1.651,1.707 -2.37500004,2.652 -0.244,0.319 -0.35,0.713 -0.297,1.112 0.053,0.397 0.257,0.75 0.576,0.995 0.265,0.203 0.58100004,0.312 0.91300004,0.312 0.472,0 0.907,-0.216 1.194,-0.59 0.631,-0.824 1.327,-1.601 2.068,-2.309 0.289,-0.277 0.454,-0.652 0.463,-1.053 0.007,-0.402 -0.141,-0.783 -0.418,-1.073 z"
     id="path4092"
     inkscape:connector-curvature="0"
     style="fill:url(#SVGID_26_)" /><linearGradient
     id="SVGID_27_"
     gradientUnits="userSpaceOnUse"
     x1="108.0806"
     y1="116.0049"
     x2="114.4863"
     y2="116.0049"
     gradientTransform="translate(-78.761651,-114.785)"><stop
       offset="0"
       style="stop-color:#0090BC"
       id="stop4095" /><stop
       offset="0.2215"
       style="stop-color:#008CB9"
       id="stop4097" /><stop
       offset="0.4194"
       style="stop-color:#0082B0"
       id="stop4099" /><stop
       offset="0.6083"
       style="stop-color:#006FA1"
       id="stop4101" /><stop
       offset="0.7905"
       style="stop-color:#00568B"
       id="stop4103" /><stop
       offset="0.9141"
       style="stop-color:#004079"
       id="stop4105" /></linearGradient><path
     d="m 35.496349,2.52 c -1.026,-1.643 -2.249,-3.15 -3.636,-4.48 -0.28,-0.269 -0.65,-0.417 -1.04,-0.417 -0.412,0 -0.798,0.164 -1.083,0.462 -0.574,0.598 -0.554,1.552 0.044,2.125 1.209,1.161 2.274,2.474 3.166,3.901 0.276,0.443 0.752,0.707 1.276,0.707 0.282,0 0.557,-0.079 0.794,-0.228 0.341,-0.213 0.578,-0.545 0.669,-0.936 0.091,-0.391 0.022,-0.793 -0.19,-1.134 z"
     id="path4107"
     inkscape:connector-curvature="0"
     style="fill:url(#SVGID_27_)" /><linearGradient
     id="SVGID_28_"
     gradientUnits="userSpaceOnUse"
     x1="121.5166"
     y1="123.0103"
     x2="128.9819"
     y2="123.0103"
     gradientTransform="translate(-78.761651,-114.785)"><stop
       offset="0"
       style="stop-color:#0090BC"
       id="stop4110" /><stop
       offset="0.2215"
       style="stop-color:#008CB9"
       id="stop4112" /><stop
       offset="0.4194"
       style="stop-color:#0082B0"
       id="stop4114" /><stop
       offset="0.6083"
       style="stop-color:#006FA1"
       id="stop4116" /><stop
       offset="0.7905"
       style="stop-color:#00568B"
       id="stop4118" /><stop
       offset="0.9141"
       style="stop-color:#004079"
       id="stop4120" /></linearGradient><path
     d="m 45.918349,-1.664 c -0.292,-0.55 -0.865,-0.836 -1.488,-0.836 -0.273,0 -0.546,0.068 -0.788,0.197 -0.396,0.211 -0.682,0.508 -0.812,0.938 -0.13,0.43 -0.087,0.884 0.124,1.28 2.557,4.799 3.908,10.279 3.908,15.846 0,0.524 -0.018,1.045 -0.033,1.441 -0.019,0.448 0.139,0.877 0.443,1.208 0.304,0.331 0.718,0.521 1.167,0.539 l 0.068,0.002 c 0.904,0 1.641,-0.707 1.678,-1.612 0.026,-0.625 0.037,-1.112 0.037,-1.578 -0.002,-6.114 -1.49,-12.14 -4.304,-17.425 z"
     id="path4122"
     inkscape:connector-curvature="0"
     style="fill:url(#SVGID_28_)" /><linearGradient
     id="SVGID_29_"
     gradientUnits="userSpaceOnUse"
     x1="127.7627"
     y1="118.6846"
     x2="133.9585"
     y2="118.6846"
     gradientTransform="translate(-78.761651,-114.785)"><stop
       offset="0"
       style="stop-color:#0090BC"
       id="stop4125" /><stop
       offset="0.2215"
       style="stop-color:#008CB9"
       id="stop4127" /><stop
       offset="0.4194"
       style="stop-color:#0082B0"
       id="stop4129" /><stop
       offset="0.6083"
       style="stop-color:#006FA1"
       id="stop4131" /><stop
       offset="0.7905"
       style="stop-color:#00568B"
       id="stop4133" /><stop
       offset="0.9141"
       style="stop-color:#004079"
       id="stop4135" /></linearGradient><path
     d="m 55.172349,8.333 c -0.584,-3.416 -1.577,-6.74 -2.952,-9.882 -0.268,-0.61 -0.872,-0.947 -1.54,-0.947 -0.232,0 -0.459,0.048 -0.673,0.142 -0.848,0.372 -1.235,1.304 -0.865,2.152 1.266,2.89 2.181,5.952 2.72,9.102 0.138,0.81 0.833,1.396 1.654,1.396 0.103,0 0.197,-0.007 0.285,-0.023 0.441,-0.075 0.828,-0.318 1.087,-0.686 0.258,-0.368 0.36,-0.813 0.284,-1.254 z"
     id="path4137"
     inkscape:connector-curvature="0"
     style="fill:url(#SVGID_29_)" /><linearGradient
     id="SVGID_30_"
     gradientUnits="userSpaceOnUse"
     x1="133.9644"
     y1="116.5781"
     x2="138.87891"
     y2="116.5781"
     gradientTransform="translate(-78.761651,-114.785)"><stop
       offset="0"
       style="stop-color:#0090BC"
       id="stop4140" /><stop
       offset="0.2215"
       style="stop-color:#008CB9"
       id="stop4142" /><stop
       offset="0.4194"
       style="stop-color:#0082B0"
       id="stop4144" /><stop
       offset="0.6083"
       style="stop-color:#006FA1"
       id="stop4146" /><stop
       offset="0.7905"
       style="stop-color:#00568B"
       id="stop4148" /><stop
       offset="0.9141"
       style="stop-color:#004079"
       id="stop4150" /></linearGradient><path
     d="m 60.070349,4.031 c -0.442,-1.826 -1.008,-3.671 -1.682,-5.48 -0.239,-0.641 -0.858,-1.027 -1.541,-1.027 -0.196,0 -0.389,0.035 -0.573,0.104 -0.412,0.152 -0.739,0.414 -0.923,0.813 -0.183,0.399 -0.198,0.846 -0.044,1.257 0.626,1.683 1.153,3.4 1.566,5.106 0.179,0.741 0.835,1.258 1.598,1.258 0.132,0 0.263,-0.016 0.387,-0.047 0.426,-0.103 0.789,-0.366 1.017,-0.74 0.229,-0.374 0.299,-0.817 0.195,-1.244 z"
     id="path4152"
     inkscape:connector-curvature="0"
     style="fill:url(#SVGID_30_)" /><linearGradient
     id="SVGID_31_"
     gradientUnits="userSpaceOnUse"
     x1="140.1655"
     y1="115.8281"
     x2="144.28999"
     y2="115.8281"
     gradientTransform="translate(-78.761651,-114.785)"><stop
       offset="0"
       style="stop-color:#0090BC"
       id="stop4155" /><stop
       offset="0.2215"
       style="stop-color:#008CB9"
       id="stop4157" /><stop
       offset="0.4194"
       style="stop-color:#0082B0"
       id="stop4159" /><stop
       offset="0.6083"
       style="stop-color:#006FA1"
       id="stop4161" /><stop
       offset="0.7905"
       style="stop-color:#00568B"
       id="stop4163" /><stop
       offset="0.9141"
       style="stop-color:#004079"
       id="stop4165" /></linearGradient><path
     d="m 65.485349,2.647 c -0.319,-1.309 -0.706,-2.664 -1.15,-4.027 -0.202,-0.621 -0.775,-1.038 -1.429,-1.038 -0.158,0 -0.313,0.025 -0.465,0.074 -0.787,0.257 -1.219,1.107 -0.964,1.895 0.42,1.292 0.786,2.573 1.088,3.809 0.165,0.676 0.765,1.147 1.458,1.147 0.118,0 0.238,-0.015 0.356,-0.043 0.391,-0.094 0.719,-0.335 0.928,-0.679 0.211,-0.344 0.272,-0.748 0.178,-1.138 z"
     id="path4167"
     inkscape:connector-curvature="0"
     style="fill:url(#SVGID_31_)" /><linearGradient
     id="SVGID_32_"
     gradientUnits="userSpaceOnUse"
     x1="93.897499"
     y1="131.31149"
     x2="98.050301"
     y2="131.31149"><stop
       offset="0"
       style="stop-color:#0090BC"
       id="stop4170" /><stop
       offset="0.2215"
       style="stop-color:#008CB9"
       id="stop4172" /><stop
       offset="0.4194"
       style="stop-color:#0082B0"
       id="stop4174" /><stop
       offset="0.6083"
       style="stop-color:#006FA1"
       id="stop4176" /><stop
       offset="0.7905"
       style="stop-color:#00568B"
       id="stop4178" /><stop
       offset="0.9141"
       style="stop-color:#004079"
       id="stop4180" /></linearGradient><circle
     cx="95.973"
     cy="131.312"
     r="2.075"
     id="circle4182"
     sodipodi:cx="95.973"
     sodipodi:cy="131.312"
     sodipodi:rx="2.075"
     sodipodi:ry="2.075"
     style="fill:url(#SVGID_32_)"
     transform="translate(-78.761651,-114.785)" /><linearGradient
     id="SVGID_33_"
     gradientUnits="userSpaceOnUse"
     x1="115.0581"
     y1="117.832"
     x2="122.4116"
     y2="117.832"
     gradientTransform="translate(-78.761651,-114.785)"><stop
       offset="0"
       style="stop-color:#0090BC"
       id="stop4185" /><stop
       offset="0.2215"
       style="stop-color:#008CB9"
       id="stop4187" /><stop
       offset="0.4194"
       style="stop-color:#0082B0"
       id="stop4189" /><stop
       offset="0.6083"
       style="stop-color:#006FA1"
       id="stop4191" /><stop
       offset="0.7905"
       style="stop-color:#00568B"
       id="stop4193" /><stop
       offset="0.9141"
       style="stop-color:#004079"
       id="stop4195" /></linearGradient><path
     d="m 43.523349,7.116 c -0.182,-0.756 -0.543,-1.783 -0.833,-2.606 l -0.027,-0.072 c -0.042,-0.105 -0.083,-0.212 -0.125,-0.317 -0.021,-0.051 -0.041,-0.103 -0.062,-0.155 -0.032,-0.08 -0.065,-0.161 -0.099,-0.241 l -0.006,-0.015 c -0.017,-0.044 -0.037,-0.088 -0.055,-0.133 -0.045,-0.108 -0.092,-0.217 -0.138,-0.324 l -0.046,-0.108 c -0.042,-0.091 -0.082,-0.184 -0.123,-0.275 -0.031,-0.068 -0.063,-0.138 -0.096,-0.208 l -0.021,-0.045 c -0.72,-1.56 -1.571,-3.056 -2.533,-4.445 -0.313,-0.455 -0.838,-0.667 -1.39,-0.667 -0.342,0 -0.671,0.103 -0.954,0.297 -0.37,0.256 -0.61,0.58 -0.69,1.021 -0.082,0.442 0.015,0.888 0.271,1.257 0.558,0.808 1.078,1.661 1.545,2.535 0.29,0.54 0.564,1.101 0.819,1.666 l 0.01,0.023 c 0.023,0.052 0.047,0.104 0.069,0.156 0.016,0.037 0.031,0.073 0.047,0.108 l 0.032,0.076 c 0.026,0.058 0.051,0.118 0.076,0.176 l 0.004,0.01 c 0.16,0.375 0.312,0.759 0.452,1.138 0.011,0.031 0.022,0.062 0.034,0.093 l 0.023,0.065 c 0.007,0.019 0.015,0.038 0.021,0.059 0.028,0.077 0.056,0.155 0.083,0.234 l 0.003,0.009 c 0.738,1.786 2.84,2.163 3.224,2.163 h 0.006 c 0.215,-0.005 0.375,-0.073 0.479,-0.205 0.194,-0.249 0.143,-0.671 0,-1.27 z m -0.484,1.298 0,0 0,0 0,0 z"
     id="path4197"
     inkscape:connector-curvature="0"
     style="fill:url(#SVGID_33_)" /><rect
     x="-78.26165"
     y="-114.285"
     display="none"
     stroke-miterlimit="10"
     width="300"
     height="300"
     id="rect4199"
     style="fill:none;stroke:#30ffff;stroke-miterlimit:10;display:none" /></svg>